<svg width="62" height="62" viewBox="0 0 62 62" fill="none" xmlns="http://www.w3.org/2000/svg">
<path d="M41.518 31.1107C41.518 25.3138 36.6407 20.6107 30.6291 20.6107C24.6175 20.6107 19.7402 25.3138 19.7402 31.1107C19.7402 36.9076 24.6175 41.6107 30.6291 41.6107C36.6407 41.6107 41.518 36.9076 41.518 31.1107Z" stroke="#AACE9B" stroke-width="1.00189" stroke-miterlimit="10"/>
<path d="M30.304 26.1908L30.6296 32.8609L30.9546 26.1908C30.9566 26.1482 30.9496 26.1056 30.934 26.0656C30.9183 26.0257 30.8944 25.9893 30.8637 25.9586C30.8329 25.9278 30.796 25.9035 30.7552 25.887C30.7144 25.8705 30.6705 25.8622 30.6262 25.8626V25.8626C30.5825 25.863 30.5393 25.8719 30.4992 25.8888C30.4591 25.9056 30.4229 25.9301 30.3929 25.9607C30.3628 25.9914 30.3394 26.0275 30.3242 26.067C30.3089 26.1066 30.3021 26.1487 30.304 26.1908V26.1908Z" stroke="#AACE9B" stroke-width="1.00189" stroke-linecap="round" stroke-linejoin="round"/>
<path d="M30.6348 37.2414C30.4094 37.2414 30.1891 37.1769 30.0016 37.0562C29.8142 36.9354 29.6681 36.7638 29.5819 36.5629C29.4956 36.3621 29.473 36.1411 29.517 35.9279C29.561 35.7148 29.6695 35.5189 29.8289 35.3652C29.9883 35.2115 30.1914 35.1069 30.4125 35.0645C30.6336 35.022 30.8627 35.0438 31.071 35.127C31.2793 35.2102 31.4573 35.351 31.5825 35.5318C31.7077 35.7125 31.7746 35.925 31.7746 36.1424C31.7746 36.4338 31.6545 36.7134 31.4408 36.9195C31.227 37.1256 30.9371 37.2414 30.6348 37.2414Z" fill="#AACE9B"/>
<path d="M31.0261 2L2 31.0261L31.0261 60.0521L60.0521 31.0261L31.0261 2Z" stroke="#AACE9B" stroke-width="2" stroke-linecap="round"/>
</svg>
